<svg width="44" height="36" viewBox="0 0 44 36" fill="none" xmlns="http://www.w3.org/2000/svg">
<path d="M32.696 35.416C32.6 35.416 32.504 35.4 32.408 35.368C32.312 35.368 32.216 35.352 32.12 35.32C31 34.968 30.2 34.28 29.72 33.256C29.24 32.232 29 31 29 29.56C29 28.056 29.208 26.392 29.624 24.568C30.04 22.744 30.584 20.888 31.256 19C31.928 17.08 32.632 15.256 33.368 13.528C34.136 11.768 34.872 10.2 35.576 8.824C36.28 7.416 36.872 6.312 37.352 5.512C36.84 5.96 36.072 6.696 35.048 7.72C34.024 8.712 32.888 9.896 31.64 11.272C30.392 12.648 29.208 14.12 28.088 15.688C26.968 17.256 26.056 18.84 25.352 20.44C25.192 20.856 24.952 21.544 24.632 22.504C24.312 23.432 24.024 24.44 23.768 25.528C23.544 26.616 23.432 27.576 23.432 28.408C23.432 29.048 23.528 29.544 23.72 29.896C23.72 29.928 23.72 29.96 23.72 29.992C23.752 29.992 23.768 30.008 23.768 30.04C23.768 30.36 23.384 30.52 22.616 30.52C21.144 30.52 20.104 30.088 19.496 29.224C18.92 28.328 18.632 27.192 18.632 25.816C18.632 24.184 18.936 22.344 19.544 20.296C20.184 18.216 20.904 16.232 21.704 14.344C22.152 13.288 22.664 12.216 23.24 11.128C23.816 10.008 24.344 9.016 24.824 8.152C25.336 7.256 25.704 6.632 25.928 6.28C24.904 7.208 23.736 8.36 22.424 9.736C21.144 11.08 19.848 12.584 18.536 14.248C17.224 15.88 16.008 17.576 14.888 19.336C13.768 21.064 12.872 22.792 12.2 24.52C11.528 26.216 11.192 27.816 11.192 29.32C11.192 30.024 11.368 30.584 11.72 31C11.784 31.128 11.816 31.192 11.816 31.192C11.816 31.288 11.656 31.336 11.336 31.336C9.768 31.336 8.584 31.064 7.784 30.52C7.016 29.944 6.632 29.016 6.632 27.736C6.632 27.576 6.632 27.416 6.632 27.256C6.664 27.096 6.696 26.92 6.728 26.728C6.824 25.928 7.048 24.872 7.4 23.56C7.784 22.216 8.28 20.728 8.888 19.096C9.528 17.432 10.248 15.736 11.048 14.008C11.88 12.248 12.776 10.568 13.736 8.968C13.832 8.808 14.072 8.44 14.456 7.864C14.872 7.288 15.256 6.68 15.608 6.04C15.992 5.4 16.184 4.936 16.184 4.648C16.184 4.36 15.992 4.296 15.608 4.456C15.064 4.648 14.424 5.064 13.688 5.704C12.952 6.344 12.152 7.08 11.288 7.912C10.424 8.744 9.512 9.56 8.552 10.36C7.624 11.128 6.664 11.784 5.672 12.328C4.712 12.84 3.768 13.096 2.84 13.096C2.616 13.096 2.376 13.08 2.12 13.048C1.896 13.016 1.656 12.952 1.4 12.856C0.856 12.664 0.584 12.184 0.584 11.416C0.584 10.68 0.792 9.816 1.208 8.824C1.656 7.8 2.2 6.824 2.84 5.896C3 5.64 3.192 5.464 3.416 5.368C3.64 5.24 3.816 5.176 3.944 5.176C4.2 5.176 4.328 5.288 4.328 5.512C4.328 5.608 4.28 5.736 4.184 5.896C4.152 6.024 4.104 6.136 4.04 6.232C4.008 6.328 3.992 6.408 3.992 6.472C3.992 6.696 4.104 6.856 4.328 6.952C4.552 7.016 4.792 7.048 5.048 7.048C5.72 7.048 6.6 6.824 7.688 6.376C8.776 5.928 9.944 5.384 11.192 4.744C12.472 4.072 13.736 3.416 14.984 2.776C16.264 2.136 17.448 1.64 18.536 1.288C19.624 0.903998 20.52 0.775998 21.224 0.903998C21.768 1.032 22.248 1.416 22.664 2.056C23.112 2.696 23.4 3.256 23.528 3.736C23.592 3.928 23.496 4.248 23.24 4.696C22.984 5.144 22.648 5.64 22.232 6.184C21.848 6.728 21.464 7.24 21.08 7.72C20.696 8.2 20.408 8.568 20.216 8.824C19.8 9.336 19.32 9.96 18.776 10.696C18.232 11.432 17.688 12.168 17.144 12.904C16.632 13.608 16.216 14.2 15.896 14.68C15.704 15 15.608 15.272 15.608 15.496C15.64 15.688 15.72 15.704 15.848 15.544C16.552 14.616 17.384 13.56 18.344 12.376C19.336 11.16 20.328 9.96 21.32 8.776C22.344 7.56 23.272 6.504 24.104 5.608C24.968 4.68 25.624 4.056 26.072 3.736C26.232 3.608 26.52 3.448 26.936 3.256C27.384 3.032 27.912 2.92 28.52 2.92C28.872 2.92 29.224 2.968 29.576 3.064C29.928 3.16 30.312 3.336 30.728 3.592C31.4 4.008 31.736 4.616 31.736 5.416C31.736 6.44 31.24 7.752 30.248 9.352C29.256 10.952 28.088 12.792 26.744 14.872C27.384 14.04 28.168 13.08 29.096 11.992C30.056 10.872 31.032 9.72 32.024 8.536C33.048 7.32 34.008 6.2 34.904 5.176C35.832 4.12 36.6 3.256 37.208 2.584C37.848 1.88 38.232 1.48 38.36 1.384C38.904 0.999999 39.336 0.808 39.656 0.808C39.912 0.808 40.216 0.888 40.568 1.048C40.92 1.208 41.368 1.432 41.912 1.72C42.616 2.072 43.112 2.52 43.4 3.064C43.688 3.576 43.832 4.152 43.832 4.792C43.832 5.752 43.608 6.744 43.16 7.768C42.712 8.76 42.28 9.64 41.864 10.408C41.544 10.952 41.064 11.88 40.424 13.192C39.816 14.504 39.144 16.024 38.408 17.752C37.672 19.48 36.952 21.272 36.248 23.128C35.576 24.984 35.016 26.76 34.568 28.456C34.12 30.12 33.896 31.544 33.896 32.728C33.896 33.144 33.928 33.528 33.992 33.88C34.056 34.232 34.168 34.536 34.328 34.792C33.912 35.208 33.368 35.416 32.696 35.416Z" fill="white"/>
</svg>
